<svg width="81" height="80" viewBox="0 0 81 80" fill="none" xmlns="http://www.w3.org/2000/svg">
<rect x="0.25" width="80" height="80" rx="40" fill="#2B7FFF"/>
<path d="M29.0293 42.4542H34.6582M29.0293 35.2729H49.2886M36.9764 44.637V51.2167M43.8342 38.9088C43.8342 32.8839 41.7408 28 39.1587 28C36.5766 28 34.4837 32.8839 34.4837 38.9088C34.4837 40.1497 34.5726 41.3426 34.7362 42.4542" stroke="white" stroke-width="1.5" stroke-linecap="round" stroke-linejoin="round"/>
<path d="M49.946 40.5451C50.0267 40.0106 50.0673 39.4652 50.0676 38.9088C50.0676 32.8839 45.1838 28 39.1588 28C33.1339 28 28.25 32.8839 28.25 38.9088C28.25 43.1682 30.6908 46.857 34.2499 48.6531" stroke="white" stroke-width="1.5" stroke-linecap="round" stroke-linejoin="round"/>
<path d="M37.5244 45.4314C36.7913 45.1009 36.7913 44.1742 37.5244 43.8436C38.3529 43.4722 39.1883 43.1163 40.0302 42.7762C41.7292 42.0862 42.9554 41.6428 43.7097 41.3853C44.2946 41.1847 44.9297 41.1847 45.5146 41.3853C46.2684 41.6428 47.4945 42.0862 49.1936 42.7762C50.0355 43.1165 50.8711 43.4724 51.6999 43.8436C52.433 44.1742 52.433 45.1009 51.6999 45.4314C50.8712 45.8029 50.0356 46.1587 49.1936 46.4988C47.4951 47.1888 46.2684 47.6322 45.5146 47.8897C44.9295 48.0904 44.2942 48.0904 43.7092 47.8897C42.9559 47.6322 41.7292 47.1888 40.0302 46.4988C39.1881 46.1587 38.3525 45.8029 37.5239 45.4314" stroke="white" stroke-width="1.5" stroke-linecap="round" stroke-linejoin="round"/>
<path d="M39.9766 46.4761V48.1598C39.9766 49.026 40.012 49.638 40.0546 50.0602C40.1102 50.6176 40.4255 51.0927 40.9365 51.3218C41.6282 51.6327 42.8249 52.0003 44.6128 52.0003C46.4008 52.0003 47.5975 51.6321 48.2891 51.3218C48.7996 51.0927 49.1154 50.6176 49.1711 50.0602C49.2136 49.638 49.2491 49.026 49.2491 48.1598V46.4761" stroke="white" stroke-width="1.5" stroke-linecap="round" stroke-linejoin="round"/>
</svg>
