<svg width="81" height="80" viewBox="0 0 81 80" fill="none" xmlns="http://www.w3.org/2000/svg">
<rect x="0.5" width="80" height="80" rx="16" fill="#CADFFF"/>
<rect x="16.5" y="16" width="48" height="48" rx="8" fill="#2B7FFF"/>
<path d="M29.2793 42.4542H34.9082M29.2793 35.2729H49.5386M37.2264 44.637V51.2167M44.0842 38.9088C44.0842 32.8839 41.9908 28 39.4087 28C36.8266 28 34.7337 32.8839 34.7337 38.9088C34.7337 40.1497 34.8226 41.3426 34.9862 42.4542" stroke="white" stroke-width="1.5" stroke-linecap="round" stroke-linejoin="round"/>
<path d="M50.196 40.5451C50.2767 40.0106 50.3173 39.4652 50.3176 38.9088C50.3176 32.8839 45.4338 28 39.4088 28C33.3839 28 28.5 32.8839 28.5 38.9088C28.5 43.1682 30.9408 46.857 34.4999 48.6531" stroke="white" stroke-width="1.5" stroke-linecap="round" stroke-linejoin="round"/>
<path d="M37.7744 45.4314C37.0413 45.1009 37.0413 44.1742 37.7744 43.8436C38.6029 43.4722 39.4383 43.1163 40.2802 42.7762C41.9792 42.0862 43.2054 41.6428 43.9597 41.3853C44.5446 41.1847 45.1797 41.1847 45.7646 41.3853C46.5184 41.6428 47.7445 42.0862 49.4436 42.7762C50.2855 43.1165 51.1211 43.4724 51.9499 43.8436C52.683 44.1742 52.683 45.1009 51.9499 45.4314C51.1212 45.8029 50.2856 46.1587 49.4436 46.4988C47.7451 47.1888 46.5184 47.6322 45.7646 47.8897C45.1795 48.0904 44.5442 48.0904 43.9592 47.8897C43.2059 47.6322 41.9792 47.1888 40.2802 46.4988C39.4381 46.1587 38.6025 45.8029 37.7739 45.4314" stroke="white" stroke-width="1.5" stroke-linecap="round" stroke-linejoin="round"/>
<path d="M40.2266 46.4761V48.1598C40.2266 49.026 40.262 49.638 40.3046 50.0602C40.3602 50.6176 40.6755 51.0927 41.1865 51.3218C41.8782 51.6327 43.0749 52.0003 44.8628 52.0003C46.6508 52.0003 47.8475 51.6321 48.5391 51.3218C49.0496 51.0927 49.3654 50.6176 49.4211 50.0602C49.4636 49.638 49.4991 49.026 49.4991 48.1598V46.4761" stroke="white" stroke-width="1.5" stroke-linecap="round" stroke-linejoin="round"/>
</svg>
