<svg width="889" height="162" viewBox="0 0 889 162" fill="none" xmlns="http://www.w3.org/2000/svg">
<path d="M809.022 161.44C766.472 161.7 729.832 128.95 729.432 83.91C729.032 38.98 764.352 3.47001 808.952 3.40001C852.982 3.33001 888.672 37.9701 888.882 82.4801C889.102 127.74 852.252 161.6 809.022 161.44Z" fill="#005B96"/>
<path d="M317.642 83C316.982 47.35 341.112 15.4001 376.082 6.85014C408.172 -0.98986 436.412 6.70009 459.052 31.3001C469.622 42.7901 475.482 56.7302 477.672 72.3602C483.312 112.47 455.982 150.79 415.442 159.18C390.542 164.33 367.422 160.14 347.132 144.47C331.562 132.44 321.912 116.45 318.582 96.8802C318.272 95.0802 317.782 93.3 317.692 91.49C317.542 88.67 317.652 85.83 317.652 83H317.642Z" fill="#0097D9"/>
<path d="M185.161 77.7107C185.161 55.9669 185.161 34.2131 185.161 12.4693C185.161 11.2937 185.24 10.1181 185.151 8.96257C184.971 6.74196 186.019 6.04879 188.104 6.08898C192.254 6.17941 196.404 6.05884 200.555 6.08898C216.996 6.17941 233.478 5.60665 249.869 6.56121C270.372 7.75692 287.073 16.5085 296.151 36.0217C308.014 61.5335 298.685 98.8216 261.792 107.875C250.558 110.628 239.174 110.809 227.731 110.789C220.139 110.769 221.097 109.904 221.067 117.41C221.027 130.623 221.077 143.847 221.047 157.06C221.047 160.898 220.967 160.958 217.196 160.978C210.382 161.019 203.578 160.898 196.763 160.999C194.17 161.039 192.244 160.235 191.007 157.904C190.847 157.612 190.688 157.311 190.488 157.05C186.228 151.574 184.861 145.495 185.011 138.441C185.44 118.204 185.161 97.9574 185.161 77.7208V77.7107Z" fill="#0097D9"/>
<path d="M0 161C29.71 107.61 59.3598 54.4 89.2098 0.77002C119.21 54.21 147.84 108.17 177.5 161C173 161 23 161 0 161Z" fill="#0097D9"/>
<path d="M618.014 84.4806C618.014 61.0206 618.014 37.5507 618.014 14.0907C618.014 12.9307 618.084 11.7607 618.014 10.6007C617.884 8.63067 618.834 7.99057 620.694 8.00057C630.344 8.05057 640.004 8.13057 649.654 8.00057C652.934 7.96057 652.414 10.0206 652.414 11.9906C652.414 29.3006 652.414 46.6007 652.414 63.9107C652.414 83.5507 652.384 103.181 652.384 122.821C652.384 127.151 652.404 127.211 656.754 127.211C675.724 127.231 694.694 127.231 713.664 127.211C718.274 127.211 718.014 127.011 718.004 131.541C718.004 140.191 718.024 148.851 718.004 157.501C717.994 161.271 717.944 161.341 714.154 161.341C692.354 161.361 670.554 161.351 648.754 161.351C640.264 161.351 631.784 161.331 623.294 161.351C617.124 161.361 618.054 161.411 618.044 155.861C618.024 132.061 618.044 108.261 618.044 84.4705L618.014 84.4806Z" fill="#015C97"/>
<path d="M495.009 84.1123C495.009 60.9723 495.009 37.8321 495.009 14.6921C495.009 13.6921 494.999 12.6921 495.009 11.6921C495.079 8.10214 495.089 8.06222 498.509 8.02222C502.999 7.97222 507.499 8.02222 511.989 8.02222C516.319 8.02222 520.649 8.06223 524.969 8.03223C529.049 8.01223 529.259 7.54219 529.209 12.4922C529.159 17.1522 529.209 21.8122 529.209 26.4722C529.209 58.2622 529.209 90.0623 529.209 121.852C529.209 122.352 529.199 122.852 529.209 123.352C529.289 127.082 529.289 127.162 533.149 127.162C552.459 127.192 571.769 127.182 591.079 127.182C592.249 127.182 593.409 127.222 594.579 127.182C596.139 127.122 597.069 127.562 597.059 129.382C597.019 139.202 597.019 149.022 597.069 158.842C597.079 160.882 596.089 161.432 594.299 161.322C593.299 161.262 592.299 161.322 591.299 161.322C560.999 161.322 530.709 161.322 500.409 161.322C500.239 161.322 500.079 161.322 499.909 161.322C494.239 161.392 495.039 161.272 495.039 156.512C495.039 132.372 495.039 108.242 495.039 84.1023H495.029L495.009 84.1123Z" fill="#005B96"/>
<path d="M808.502 127.18C784.352 127.39 763.592 107.89 763.652 83.19C763.712 58.13 783.072 37.2901 809.802 37.5401C837.462 37.7901 854.912 60.8301 854.222 84.0801C853.552 106.43 834.672 127.95 808.502 127.19V127.18Z" fill="white"/>
<path d="M443.502 83.1301C444.022 106.43 424.342 128.23 397.432 128.02C372.282 127.83 351.672 108.47 351.852 82.3998C352.032 55.6898 372.622 36.47 397.832 36.54C425.162 36.62 444.262 59.3401 443.492 83.1201L443.502 83.1301Z" fill="white"/>
<path d="M220.762 57.1202C220.762 51.4602 220.822 45.7999 220.732 40.1499C220.692 37.9799 221.552 37.1901 223.662 37.2901C232.122 37.6901 240.582 36.7701 249.052 38.0601C256.512 39.2001 265.392 44.3302 266.212 55.8702C266.922 65.8402 261.022 73.5001 251.932 76.1001C249.692 76.7401 247.442 77.16 245.082 77.17C238.092 77.2 231.102 77.2901 224.122 77.5301C221.512 77.6201 220.642 76.7001 220.712 74.1001C220.872 68.4501 220.762 62.7802 220.762 57.1302V57.1202Z" fill="#FEFFFF"/>
<path d="M91.472 61.46C106.202 87.61 120.482 112.95 135.062 138.84H47.3521C62.0521 113.06 76.512 87.68 91.472 61.46Z" fill="#FEFFFF"/>
<path d="M114.692 127.68H67.8618C75.7018 113.68 83.2818 100.13 91.2418 85.9199C99.1518 100.01 106.792 113.62 114.692 127.68Z" fill="#015B97"/>
</svg>
