<svg width="81" height="80" viewBox="0 0 81 80" fill="none" xmlns="http://www.w3.org/2000/svg">
<rect x="0.5" width="80" height="80" rx="16" fill="#FFCACA"/>
<rect x="16.5" y="16" width="48" height="48" rx="8" fill="#FF2B2B"/>
<path d="M47.3571 31.5H33.6429C33.1882 31.5 32.7522 31.6791 32.4307 31.9979C32.1092 32.3167 31.9286 32.7491 31.9286 33.2V46.8C31.9286 47.2509 32.1092 47.6833 32.4307 48.0021C32.7522 48.3209 33.1882 48.5 33.6429 48.5H47.3571C47.8118 48.5 48.2478 48.3209 48.5693 48.0021C48.8908 47.6833 49.0714 47.2509 49.0714 46.8V33.2C49.0714 32.7491 48.8908 32.3167 48.5693 31.9979C48.2478 31.6791 47.8118 31.5 47.3571 31.5ZM47.3571 46.8H33.6429V33.2H47.3571V46.8ZM52.5 32.35V47.65C52.5 47.8754 52.4097 48.0916 52.2489 48.251C52.0882 48.4104 51.8702 48.5 51.6429 48.5C51.4155 48.5 51.1975 48.4104 51.0368 48.251C50.876 48.0916 50.7857 47.8754 50.7857 47.65V32.35C50.7857 32.1246 50.876 31.9084 51.0368 31.749C51.1975 31.5896 51.4155 31.5 51.6429 31.5C51.8702 31.5 52.0882 31.5896 52.2489 31.749C52.4097 31.9084 52.5 32.1246 52.5 32.35ZM30.2143 32.35V47.65C30.2143 47.8754 30.124 48.0916 29.9632 48.251C29.8025 48.4104 29.5845 48.5 29.3571 48.5C29.1298 48.5 28.9118 48.4104 28.7511 48.251C28.5903 48.0916 28.5 47.8754 28.5 47.65V32.35C28.5 32.1246 28.5903 31.9084 28.7511 31.749C28.9118 31.5896 29.1298 31.5 29.3571 31.5C29.5845 31.5 29.8025 31.5896 29.9632 31.749C30.124 31.9084 30.2143 32.1246 30.2143 32.35Z" fill="white"/>
</svg>
