<svg width="81" height="80" viewBox="0 0 81 80" fill="none" xmlns="http://www.w3.org/2000/svg">
<rect x="0.25" width="80" height="80" rx="40" fill="#2B7FFF"/>
<path d="M47.1071 31.5H33.3929C32.9382 31.5 32.5022 31.6791 32.1807 31.9979C31.8592 32.3167 31.6786 32.7491 31.6786 33.2V46.8C31.6786 47.2509 31.8592 47.6833 32.1807 48.0021C32.5022 48.3209 32.9382 48.5 33.3929 48.5H47.1071C47.5618 48.5 47.9978 48.3209 48.3193 48.0021C48.6408 47.6833 48.8214 47.2509 48.8214 46.8V33.2C48.8214 32.7491 48.6408 32.3167 48.3193 31.9979C47.9978 31.6791 47.5618 31.5 47.1071 31.5ZM47.1071 46.8H33.3929V33.2H47.1071V46.8ZM52.25 32.35V47.65C52.25 47.8754 52.1597 48.0916 51.9989 48.251C51.8382 48.4104 51.6202 48.5 51.3929 48.5C51.1655 48.5 50.9475 48.4104 50.7868 48.251C50.626 48.0916 50.5357 47.8754 50.5357 47.65V32.35C50.5357 32.1246 50.626 31.9084 50.7868 31.749C50.9475 31.5896 51.1655 31.5 51.3929 31.5C51.6202 31.5 51.8382 31.5896 51.9989 31.749C52.1597 31.9084 52.25 32.1246 52.25 32.35ZM29.9643 32.35V47.65C29.9643 47.8754 29.874 48.0916 29.7132 48.251C29.5525 48.4104 29.3345 48.5 29.1071 48.5C28.8798 48.5 28.6618 48.4104 28.5011 48.251C28.3403 48.0916 28.25 47.8754 28.25 47.65V32.35C28.25 32.1246 28.3403 31.9084 28.5011 31.749C28.6618 31.5896 28.8798 31.5 29.1071 31.5C29.3345 31.5 29.5525 31.5896 29.7132 31.749C29.874 31.9084 29.9643 32.1246 29.9643 32.35Z" fill="white"/>
</svg>
