<svg width="81" height="80" viewBox="0 0 81 80" fill="none" xmlns="http://www.w3.org/2000/svg">
<rect x="0.75" width="80" height="80" rx="40" fill="#2B7FFF"/>
<path d="M28.75 32.0001C28.75 30.9392 29.1714 29.9218 29.9216 29.1716C30.6717 28.4214 31.6892 28 32.75 28H43.9501C45.011 28 46.0284 28.4214 46.7785 29.1716C47.5287 29.9218 47.9501 30.9392 47.9501 32.0001V34.4482C47.4187 34.3866 46.882 34.3845 46.3501 34.4418V34.4002H30.35V43.2005C30.35 43.837 30.6029 44.4475 31.053 44.8976C31.503 45.3477 32.1135 45.6005 32.75 45.6005H37.4764L36.3244 46.7526C36.1845 46.8921 36.0551 47.0419 35.9372 47.2006H32.75C31.6892 47.2006 30.6717 46.7791 29.9216 46.029C29.1714 45.2788 28.75 44.2614 28.75 43.2005V32.0001ZM41.4397 37.1587L40.5165 36.2338C40.4421 36.1595 40.3538 36.1005 40.2566 36.0602C40.1594 36.0199 40.0553 35.9992 39.9501 35.9992C39.8449 35.9992 39.7407 36.0199 39.6435 36.0602C39.5463 36.1005 39.458 36.1595 39.3837 36.2338C39.3093 36.3082 39.2503 36.3965 39.21 36.4937C39.1698 36.5909 39.149 36.6951 39.149 36.8003C39.149 36.9055 39.1698 37.0096 39.21 37.1068C39.2503 37.204 39.3093 37.2923 39.3837 37.3667L40.5757 38.5571C40.8061 38.0654 41.0941 37.5992 41.4397 37.1587ZM30.35 32.8001H46.3501V32.0001C46.3501 31.3636 46.0972 30.7531 45.6472 30.303C45.1971 29.8529 44.5866 29.6 43.9501 29.6H32.75C32.1135 29.6 31.503 29.8529 31.053 30.303C30.6029 30.7531 30.35 31.3636 30.35 32.0001V32.8001ZM37.3164 37.3667C37.3908 37.2923 37.4498 37.204 37.4901 37.1068C37.5303 37.0096 37.5511 36.9055 37.5511 36.8003C37.5511 36.6951 37.5303 36.5909 37.4901 36.4937C37.4498 36.3965 37.3908 36.3082 37.3164 36.2338C37.2421 36.1595 37.1538 36.1005 37.0566 36.0602C36.9594 36.0199 36.8552 35.9992 36.75 35.9992C36.6449 35.9992 36.5407 36.0199 36.4435 36.0602C36.3463 36.1005 36.258 36.1595 36.1836 36.2338L32.9836 39.4339C32.9091 39.5083 32.85 39.5965 32.8097 39.6937C32.7694 39.7909 32.7486 39.8951 32.7486 40.0004C32.7486 40.1056 32.7694 40.2098 32.8097 40.307C32.85 40.4042 32.9091 40.4925 32.9836 40.5668L36.1836 43.7669C36.3339 43.9171 36.5376 44.0015 36.75 44.0015C36.9625 44.0015 37.1662 43.9171 37.3164 43.7669C37.4667 43.6166 37.5511 43.4129 37.5511 43.2005C37.5511 42.988 37.4667 42.7843 37.3164 42.634L34.6812 40.0004L37.3164 37.3667ZM47.7773 36.0386C48.3629 36.1058 48.5309 36.8067 48.1133 37.2259L46.5533 38.7859C46.3293 39.0099 46.1516 39.2758 46.0304 39.5685C45.9092 39.8611 45.8468 40.1748 45.8468 40.4916C45.8468 40.8083 45.9092 41.122 46.0304 41.4147C46.1516 41.7073 46.3293 41.9732 46.5533 42.1972C46.7773 42.4212 47.0432 42.5989 47.3358 42.7201C47.6285 42.8413 47.9422 42.9037 48.2589 42.9037C48.5757 42.9037 48.8893 42.8413 49.182 42.7201C49.4746 42.5989 49.7405 42.4212 49.9645 42.1972L51.5245 40.6372C51.9421 40.2196 52.6445 40.3876 52.7117 40.9732C52.8232 41.9241 52.6902 42.8877 52.3255 43.7729C51.9607 44.6581 51.3762 45.4357 50.6272 46.032C49.8783 46.6284 48.9895 47.0238 48.0451 47.181C47.1007 47.3382 46.1318 47.2518 45.2301 46.9302L40.8685 51.2935C40.6445 51.5175 40.3786 51.6952 40.0859 51.8164C39.7933 51.9376 39.4796 52 39.1629 52C38.8461 52 38.5324 51.9376 38.2398 51.8164C37.9471 51.6952 37.6812 51.5175 37.4572 51.2935C37.2333 51.0695 37.0556 50.8036 36.9344 50.5109C36.8132 50.2183 36.7508 49.9046 36.7508 49.5878C36.7508 49.2711 36.8132 48.9574 36.9344 48.6648C37.0556 48.3721 37.2333 48.1062 37.4572 47.8822L41.8189 43.5205C41.4971 42.6186 41.4108 41.6495 41.568 40.7049C41.7253 39.7603 42.1208 38.8715 42.7174 38.1224C43.3139 37.3734 44.0917 36.7889 44.9771 36.4242C45.8625 36.0596 46.8263 35.9269 47.7773 36.0386Z" fill="white"/>
</svg>
