<svg width="81" height="80" viewBox="0 0 81 80" fill="none" xmlns="http://www.w3.org/2000/svg">
<rect x="0.75" width="80" height="80" rx="40" fill="#2B7FFF"/>
<path d="M33.8027 39.7411C40.4772 27.3015 48.7876 27.1575 52.1096 28.6405C53.5926 31.9626 53.4486 40.2729 41.009 46.9474C40.8802 46.2059 40.1627 44.2632 38.3248 42.4253C36.4869 40.5874 34.5442 39.8699 33.8027 39.7411Z" stroke="white" stroke-width="1.5" stroke-linecap="round" stroke-linejoin="round"/>
<path d="M42.6447 46.6949C45.2253 47.8734 45.4994 49.9879 45.8582 52.0001C45.8582 52.0001 51.262 48.2713 47.806 43.158M34.0553 38.1054C32.8767 35.5248 30.7622 35.2494 28.75 34.8919C28.75 34.8919 32.4788 29.4882 37.5921 32.9442M32.8035 43.158C32.0052 43.9564 30.6485 46.2705 31.606 49.1441C34.4797 50.1016 36.7938 48.745 37.5921 47.9467" stroke="white" stroke-width="1.5" stroke-linecap="round" stroke-linejoin="round"/>
<path d="M47.8165 35.2671C47.8165 34.9607 47.7561 34.6574 47.6389 34.3743C47.5216 34.0913 47.3498 33.8341 47.1332 33.6174C46.9165 33.4008 46.6593 33.2289 46.3763 33.1117C46.0932 32.9944 45.7898 32.9341 45.4834 32.9341C45.1771 32.9341 44.8737 32.9944 44.5906 33.1117C44.3076 33.2289 44.0504 33.4008 43.8337 33.6174C43.6171 33.8341 43.4452 34.0913 43.328 34.3743C43.2107 34.6574 43.1504 34.9607 43.1504 35.2671C43.1504 35.8859 43.3962 36.4793 43.8337 36.9168C44.2713 37.3544 44.8647 37.6002 45.4834 37.6002C46.1022 37.6002 46.6956 37.3544 47.1332 36.9168C47.5707 36.4793 47.8165 35.8859 47.8165 35.2671Z" stroke="white" stroke-width="1.5"/>
</svg>
