<svg width="54" height="55" viewBox="0 0 54 55" fill="none" xmlns="http://www.w3.org/2000/svg">
<path d="M12.5273 26.9606C26.4326 1.04483 43.7457 0.744824 50.6668 3.83429C53.7562 10.7553 53.4562 28.0685 27.5405 41.9737C27.2721 40.429 25.7773 36.3816 21.9484 32.5527C18.1194 28.7237 14.0721 27.229 12.5273 26.9606Z" stroke="#3478F6" stroke-width="4" stroke-linecap="round" stroke-linejoin="round"/>
<path d="M30.9473 41.4478C36.3236 43.903 36.8947 48.3083 37.642 52.5004C37.642 52.5004 48.8999 44.732 41.6999 34.0794M13.0526 23.5531C10.5974 18.1768 6.1921 17.6031 2 16.8583C2 16.8583 9.76841 5.60047 20.421 12.8005M10.4447 34.0794C8.78157 35.7425 5.95526 40.5636 7.94999 46.5504C13.9368 48.5451 18.7579 45.7188 20.421 44.0557" stroke="#3478F6" stroke-width="4" stroke-linecap="round" stroke-linejoin="round"/>
<path d="M41.721 17.6398C41.721 17.0015 41.5953 16.3695 41.351 15.7798C41.1068 15.1901 40.7488 14.6543 40.2974 14.2029C39.8461 13.7516 39.3103 13.3935 38.7206 13.1493C38.1309 12.905 37.4988 12.7793 36.8605 12.7793C36.2222 12.7793 35.5902 12.905 35.0005 13.1493C34.4108 13.3935 33.875 13.7516 33.4236 14.2029C32.9723 14.6543 32.6142 15.1901 32.37 15.7798C32.1257 16.3695 32 17.0015 32 17.6398C32 18.9289 32.5121 20.1652 33.4236 21.0767C34.3351 21.9882 35.5714 22.5003 36.8605 22.5003C38.1496 22.5003 39.3859 21.9882 40.2974 21.0767C41.2089 20.1652 41.721 18.9289 41.721 17.6398Z" stroke="#3478F6" stroke-width="4"/>
</svg>
